<mxfile host="app.diagrams.net" modified="2023-02-13T10:01:39.139Z" agent="5.0 (Windows NT 10.0; Win64; x64) AppleWebKit/537.36 (KHTML, like Gecko) Chrome/110.0.0.0 Safari/537.36 Edg/110.0.1587.41" etag="sVqUuIUrUG6UitW2MF3u" version="20.8.8" type="github">
  <diagram id="3228e29e-7158-1315-38df-8450db1d8a1d" name="Page-1">
    <mxGraphModel dx="1221" dy="822" grid="1" gridSize="10" guides="1" tooltips="1" connect="1" arrows="1" fold="1" page="1" pageScale="1" pageWidth="1169" pageHeight="827" background="none" math="0" shadow="0">
      <root>
        <mxCell id="0" />
        <mxCell id="1" parent="0" />
        <mxCell id="21541" value="" style="ellipse;whiteSpace=wrap;rotation=-25;fillColor=#F08705;opacity=60;strokeColor=none;html=1;" parent="1" vertex="1">
          <mxGeometry x="280" y="220" width="350" height="156.38" as="geometry" />
        </mxCell>
        <mxCell id="21544" value="" style="ellipse;whiteSpace=wrap;fillColor=#12AAB5;opacity=60;strokeColor=none;rotation=90;html=1;shadow=0;gradientColor=none;" parent="1" vertex="1">
          <mxGeometry x="420" y="110" width="251.24" height="90" as="geometry" />
        </mxCell>
        <mxCell id="yQlu2G9x0r_U7x9RARwV-21565" value="" style="ellipse;whiteSpace=wrap;rotation=205;fillColor=#66B2FF;opacity=60;strokeColor=none;html=1;direction=east;" vertex="1" parent="1">
          <mxGeometry x="450" y="220" width="350" height="156.38" as="geometry" />
        </mxCell>
        <mxCell id="yQlu2G9x0r_U7x9RARwV-21566" value="&lt;font face=&quot;得意黑&quot; style=&quot;font-size: 18px;&quot;&gt;人工智能&lt;/font&gt;" style="text;strokeColor=none;align=center;fillColor=none;html=1;verticalAlign=middle;whiteSpace=wrap;rounded=0;strokeWidth=6;fontSize=18;" vertex="1" parent="1">
          <mxGeometry x="513.43" y="120" width="64.38" height="30" as="geometry" />
        </mxCell>
        <mxCell id="yQlu2G9x0r_U7x9RARwV-21567" value="&lt;font face=&quot;得意黑&quot; style=&quot;font-size: 18px;&quot;&gt;Web3&lt;/font&gt;" style="text;strokeColor=none;align=center;fillColor=none;html=1;verticalAlign=middle;whiteSpace=wrap;rounded=0;strokeWidth=6;fontSize=18;" vertex="1" parent="1">
          <mxGeometry x="385.61999999999995" y="300" width="64.38" height="30" as="geometry" />
        </mxCell>
        <mxCell id="yQlu2G9x0r_U7x9RARwV-21568" value="&lt;font face=&quot;得意黑&quot;&gt;&amp;nbsp;元宇宙&lt;/font&gt;" style="text;strokeColor=none;align=center;fillColor=none;html=1;verticalAlign=middle;whiteSpace=wrap;rounded=0;strokeWidth=6;fontSize=18;" vertex="1" parent="1">
          <mxGeometry x="650" y="300" width="64.38" height="30" as="geometry" />
        </mxCell>
        <mxCell id="yQlu2G9x0r_U7x9RARwV-21569" value="A" style="text;strokeColor=none;align=center;fillColor=none;html=1;verticalAlign=middle;whiteSpace=wrap;rounded=0;fontSize=18;fontFamily=得意黑;fontColor=#66FF66;" vertex="1" parent="1">
          <mxGeometry x="510.5" y="283.19" width="60" height="30" as="geometry" />
        </mxCell>
        <mxCell id="yQlu2G9x0r_U7x9RARwV-21570" value="&lt;font&gt;B&lt;/font&gt;" style="text;strokeColor=none;align=center;fillColor=none;html=1;verticalAlign=middle;whiteSpace=wrap;rounded=0;fontSize=18;fontFamily=得意黑;fontColor=#FF6666;" vertex="1" parent="1">
          <mxGeometry x="513.43" y="220" width="60" height="30" as="geometry" />
        </mxCell>
      </root>
    </mxGraphModel>
  </diagram>
</mxfile>
